# xmcd CD database file
#
# Track frame offsets:
#	150
#	2344
#	24605
#	42767
#	62305
#	81554
#	83690
#	85438
#	105426
#	128577
#	149280
#	178877
#	180358
#	210109
#	232729
#	261667
#
# Disc length: 3901 seconds
#
# Revision: 0
# Processed by: cddbd v1.5.2PL0 Copyright (c) Steve Scherf et al.
# Submitted via: CDex 1.70beta3
#
DISCID=bf0f3b10
DTITLE=Sabu Martinez - Jazz Espagnole
DYEAR=1960
DGENRE=Jazz
TTITLE0=Intro
TTITLE1=The Oracle
TTITLE2=I Remember Carmen
TTITLE3=Delilah
TTITLE4=Breakin' It In
TTITLE5=Flipping
TTITLE6=Otra Vez
TTITLE7=Flamenco Ain't Bad
TTITLE8=Woody'n You
TTITLE9=Enchantment
TTITLE10=Nica's Dream
TTITLE11=Coda
TTITLE12=High Tension
TTITLE13=Libido Blues
TTITLE14=Cosmicon
TTITLE15=In Orbit
EXTD=YEAR: 1960
EXTT0=
EXTT1=
EXTT2=
EXTT3=
EXTT4=
EXTT5=
EXTT6=
EXTT7=
EXTT8=
EXTT9=
EXTT10=
EXTT11=
EXTT12=
EXTT13=
EXTT14=
EXTT15=
PLAYORDER=
